<?xml version="1.0" encoding="UTF-8" standalone="no"?>
<svg
   width="512"
   height="512"
   viewBox="0 0 512 512"
   version="1.1"
   id="svg33"
   sodipodi:docname="app-icon.svg"
   inkscape:version="1.4.2 (f4327f4, 2025-05-13)"
   xmlns:inkscape="http://www.inkscape.org/namespaces/inkscape"
   xmlns:sodipodi="http://sodipodi.sourceforge.net/DTD/sodipodi-0.dtd"
   xmlns:xlink="http://www.w3.org/1999/xlink"
   xmlns="http://www.w3.org/2000/svg"
   xmlns:svg="http://www.w3.org/2000/svg">
  <sodipodi:namedview
     id="namedview33"
     pagecolor="#ffffff"
     bordercolor="#000000"
     borderopacity="0.25"
     inkscape:showpageshadow="2"
     inkscape:pageopacity="0.0"
     inkscape:pagecheckerboard="0"
     inkscape:deskcolor="#d1d1d1"
     inkscape:zoom="0.84486891"
     inkscape:cx="362.77818"
     inkscape:cy="268.08893"
     inkscape:window-width="1366"
     inkscape:window-height="705"
     inkscape:window-x="-8"
     inkscape:window-y="-8"
     inkscape:window-maximized="1"
     inkscape:current-layer="g18" />
  <defs
     id="defs10">
    <linearGradient
       id="bodyGradient"
       x1="104"
       y1="56"
       x2="408"
       y2="456"
       gradientUnits="userSpaceOnUse">
      <stop
         offset="0"
         stop-color="#ff6b6b"
         id="stop1" />
      <stop
         offset="1"
         stop-color="#d92525"
         id="stop2" />
    </linearGradient>
    <linearGradient
       id="screenGradient"
       x1="142"
       y1="104"
       x2="370"
       y2="266"
       gradientUnits="userSpaceOnUse">
      <stop
         offset="0"
         stop-color="#ffffff"
         id="stop3" />
      <stop
         offset="1"
         stop-color="#f2f7fb"
         id="stop4" />
    </linearGradient>
    <linearGradient
       id="keyGradient"
       x1="145"
       y1="298"
       x2="370"
       y2="420"
       gradientUnits="userSpaceOnUse">
      <stop
         offset="0"
         stop-color="#ffffff"
         id="stop5" />
      <stop
         offset="1"
         stop-color="#eef1f4"
         id="stop6" />
    </linearGradient>
    <linearGradient
       id="accentGradient"
       x1="286"
       y1="300"
       x2="369"
       y2="421"
       gradientUnits="userSpaceOnUse">
      <stop
         offset="0"
         stop-color="#2f3a46"
         id="stop7" />
      <stop
         offset="1"
         stop-color="#111820"
         id="stop8" />
    </linearGradient>
    <radialGradient
       id="shineGradient"
       cx="180"
       cy="96"
       r="250"
       gradientUnits="userSpaceOnUse">
      <stop
         offset="0"
         stop-color="#ffffff"
         stop-opacity="0.30"
         id="stop9" />
      <stop
         offset="1"
         stop-color="#ffffff"
         stop-opacity="0"
         id="stop10" />
    </radialGradient>
    <linearGradient
       inkscape:collect="always"
       xlink:href="#keyGradient"
       id="linearGradient34"
       gradientUnits="userSpaceOnUse"
       x1="145"
       y1="298"
       x2="370"
       y2="420" />
    <linearGradient
       inkscape:collect="always"
       xlink:href="#keyGradient"
       id="linearGradient35"
       gradientUnits="userSpaceOnUse"
       x1="145"
       y1="298"
       x2="370"
       y2="420" />
    <linearGradient
       inkscape:collect="always"
       xlink:href="#accentGradient"
       id="linearGradient36"
       gradientUnits="userSpaceOnUse"
       x1="286"
       y1="300"
       x2="369"
       y2="421" />
    <linearGradient
       inkscape:collect="always"
       xlink:href="#keyGradient"
       id="linearGradient37"
       gradientUnits="userSpaceOnUse"
       x1="145"
       y1="298"
       x2="370"
       y2="420" />
    <linearGradient
       inkscape:collect="always"
       xlink:href="#keyGradient"
       id="linearGradient38"
       gradientUnits="userSpaceOnUse"
       x1="145"
       y1="298"
       x2="370"
       y2="420" />
    <linearGradient
       inkscape:collect="always"
       xlink:href="#accentGradient"
       id="linearGradient39"
       gradientUnits="userSpaceOnUse"
       x1="286"
       y1="300"
       x2="369"
       y2="421" />
  </defs>
  <g
     id="g11"
     transform="matrix(1.1698708,0,0,1.1698708,-43.486913,-43.486913)">
    <rect
       x="88"
       y="40"
       width="336"
       height="432"
       rx="62"
       ry="62"
       fill="url(#bodyGradient)"
       id="rect10"
       style="fill:url(#bodyGradient)" />
    <rect
       x="88"
       y="40"
       width="336"
       height="432"
       rx="62"
       ry="62"
       fill="url(#shineGradient)"
       id="rect11"
       style="fill:url(#shineGradient)" />
    <path
       d="m 150,40 h 212 c 34,0 62,28 62,62 v 308 c 0,34 -28,62 -62,62 H 150 C 116,472 88,444 88,410 V 102 c 0,-34 28,-62 62,-62 z m 1,18 c -24,0 -44,20 -44,44 v 308 c 0,24 20,44 44,44 h 210 c 24,0 44,-20 44,-44 V 102 C 405,78 385,58 361,58 Z"
       fill="#b51f1f"
       id="path11" />
  </g>
  <g
     id="g13"
     transform="matrix(1.1698708,0,0,1.1698708,-43.486913,-43.486913)">
    <rect
       x="128"
       y="92"
       width="256"
       height="158"
       rx="24"
       ry="24"
       fill="url(#screenGradient)"
       id="rect12"
       style="fill:url(#screenGradient)" />
    <path
       d="m 152,92 h 208 c 13,0 24,11 24,24 v 12 H 128 v -12 c 0,-13 11,-24 24,-24 z"
       fill="#e8eff5"
       id="path12" />
    <path
       d="m 152,250 h 208 c 13,0 24,-11 24,-24 V 214 H 128 v 12 c 0,13 11,24 24,24 z"
       fill="#dce7ef"
       id="path13" />
  </g>
  <g
     fill="#26313d"
     id="g16"
     transform="matrix(1.1698708,0,0,1.1698708,-43.486913,-43.486913)">
    <path
       d="m 168,132 h 40 v 14 h -40 z"
       id="path14" />
    <path
       d="m 168,164 h 62 v 14 h -62 z"
       id="path15" />
    <path
       d="m 168,196 h 78 v 14 h -78 z"
       id="path16" />
  </g>
  <g
     fill="#26313d"
     id="g18"
     transform="translate(0,20)">
    <circle
       cx="317.45584"
       cy="145.12181"
       r="28.076899"
       id="circle16"
       style="stroke-width:1.16987" />
    <path
       d="m 350.62137,118.2943 -64.92469,75.45481 -17.88489,-5.52191 64.92469,-75.45481 z"
       id="path17"
       style="stroke-width:1.16987" />
    <circle
       cx="279.3974"
       cy="186.86543"
       r="12.868578"
       id="circle17"
       style="stroke-width:1.16987" />
    <circle
       cx="356.60889"
       cy="95.615509"
       r="12.868578"
       id="circle18"
       style="stroke-width:1.16987" />
  </g>
  <g
     id="g23"
     transform="matrix(1.1698708,0,0,1.1698708,-43.486913,-43.486913)">
    <rect
       x="128"
       y="282"
       width="68"
       height="58"
       rx="14"
       ry="14"
       fill="url(#keyGradient)"
       id="rect18"
       style="fill:url(#linearGradient34)" />
    <rect
       x="222"
       y="282"
       width="68"
       height="58"
       rx="14"
       ry="14"
       fill="url(#keyGradient)"
       id="rect19"
       style="fill:url(#linearGradient35)" />
    <rect
       x="316"
       y="282"
       width="68"
       height="58"
       rx="14"
       ry="14"
       fill="url(#accentGradient)"
       id="rect20"
       style="fill:url(#linearGradient36)" />
    <rect
       x="128"
       y="362"
       width="68"
       height="58"
       rx="14"
       ry="14"
       fill="url(#keyGradient)"
       id="rect21"
       style="fill:url(#linearGradient37)" />
    <rect
       x="222"
       y="362"
       width="68"
       height="58"
       rx="14"
       ry="14"
       fill="url(#keyGradient)"
       id="rect22"
       style="fill:url(#linearGradient38)" />
    <rect
       x="316"
       y="362"
       width="68"
       height="58"
       rx="14"
       ry="14"
       fill="url(#accentGradient)"
       id="rect23"
       style="fill:url(#linearGradient39)" />
  </g>
  <g
     fill="#26313d"
     id="g27"
     transform="matrix(1.1698708,0,0,1.1698708,-43.486913,-61.153466)">
    <path
       d="m 156,302 h 12 v 18 h 18 v 12 h -18 v 18 h -12 v -18 h -18 v -12 h 18 z"
       id="path23" />
    <path
       d="m 238,321 h 36 v 12 h -36 z"
       id="path24" />
    <g
       id="g34"
       transform="translate(0,6)">
      <path
         d="m 145,382 h 34 v 12 h -34 z"
         id="path25" />
      <path
         d="m 145,406 h 34 v 12 h -34 z"
         id="path26" />
    </g>
    <path
       d="m 241,382 15,15 15,-15 9,9 -15,15 15,15 -9,9 -15,-15 -15,15 -9,-9 15,-15 -15,-15 z"
       id="path27" />
  </g>
  <g
     id="g32"
     transform="matrix(1.1698708,0,0,1.1698708,-43.486913,-43.486913)">
    <path
       d="m 116,258 h 280 v 14 H 116 Z"
       fill="#b51f1f"
       opacity="0.45"
       id="path31" />
    <path
       d="m 252,78 h 8 c 7,0 12,5 12,12 h -32 c 0,-7 5,-12 12,-12 z"
       fill="#9f1b1b"
       id="path32" />
  </g>
  <g
     fill="#ffffff"
     opacity="0.28"
     id="g33"
     transform="matrix(1.1698708,0,0,1.1698708,-43.486913,-43.486913)">
    <path
       d="m 147,60 h 78 C 179,86 136,136 111,205 V 101 c 0,-23 13,-41 36,-41 z"
       id="path33" />
  </g>
</svg>
